<svg width="68" height="55" viewBox="0 0 68 55" fill="none" xmlns="http://www.w3.org/2000/svg">
<path d="M23.4194 27.6774C31.0307 27.6774 37.2581 21.45 37.2581 13.8387C37.2581 6.22742 31.0307 0 23.4194 0C15.8081 0 9.58066 6.22742 9.58066 13.8387C9.58066 21.45 15.8081 27.6774 23.4194 27.6774ZM23.4194 29.8491C13.0702 29.8491 7.34748 34.6373 2.70655 40.4516C0.986542 42.6065 0 45.658 0 47.9032C0 54.8226 23.4194 54.8226 23.4194 54.8226C23.4194 54.8226 46.8387 54.8226 46.8387 47.9032C46.8387 45.658 45.8522 42.6065 44.1322 40.4516C39.4912 34.6373 33.7685 29.8491 23.4194 29.8491Z" fill="white"/>
<path d="M0.806396 42V42C15.6897 44.6459 30.9231 44.6459 45.8064 42V42" stroke="#7F9FF0" stroke-width="2"/>
<path d="M44.123 35.0178C43.1665 34.4655 42.8387 33.2424 43.391 32.2858L44.8188 29.8127C45.3711 28.8561 46.5943 28.5284 47.5509 29.0807L49.5605 30.2409C50.5171 30.7932 50.8448 32.0164 50.2925 32.973L48.8647 35.446C48.3124 36.4026 47.0892 36.7304 46.1327 36.1781L44.123 35.0178Z" fill="white"/>
<path d="M51.7045 32.3773C55.7881 32.6248 59.5156 32.5532 62.2448 32.2329C63.6053 32.0732 64.7426 31.849 65.5578 31.5604C65.9633 31.4168 66.3183 31.2473 66.5844 31.0413C66.8477 30.8374 67.0853 30.5477 67.1086 30.1627C67.1728 29.1036 66.9755 28.2639 66.3179 27.6789C65.6993 27.1285 64.7637 26.8944 63.61 26.762C62.59 26.6449 61.3011 26.5998 59.7392 26.5451C59.508 26.537 59.271 26.5287 59.0279 26.5199C57.1314 26.4514 54.8402 26.3537 52.0995 26.1052C48.4988 25.7788 45.7704 25.5591 43.7026 25.455C41.6422 25.3512 40.2067 25.3602 39.2063 25.5024C38.2112 25.6439 37.5357 25.932 37.1387 26.49C36.7646 27.0159 36.7187 27.689 36.6805 28.3186C36.6572 28.7036 36.858 29.0199 37.0948 29.254C37.334 29.4907 37.666 29.7018 38.0512 29.8933C38.8256 30.2783 39.9274 30.6382 41.2587 30.961C43.9292 31.6085 47.6209 32.1298 51.7045 32.3773Z" fill="white" stroke="#7F9FF0"/>
<ellipse cx="52.0221" cy="27.1356" rx="14.7419" ry="3.39376" transform="rotate(3.46821 52.0221 27.1356)" fill="white" stroke="#7F9FF0"/>
</svg>
