<svg width="52" height="49" viewBox="0 0 52 49" fill="none" xmlns="http://www.w3.org/2000/svg">
<path d="M42.0461 12.0342H48V38.0743H42.0461V12.0342ZM45.0275 1.8042C43.3947 1.8042 42.0461 3.44565 42.0461 5.46562V9.24421H48V5.46562C48 3.44565 46.6537 1.8042 45.0275 1.8042ZM42 40.8643L45.0074 46.8042L48 40.8643H42Z" fill="white"/>
<rect x="14.8572" y="18.2686" width="14.8571" height="1.85714" fill="white"/>
<rect x="14.8572" y="21.9828" width="14.8571" height="1.85714" fill="white"/>
<path d="M35.2857 13.6257H22.3826H9.28572V10.6261H35.2857V13.6257ZM37.3043 5.87827V26.1614L27.8571 39.1131H11.1913C10.2019 39.1131 9.25308 38.6128 8.55349 37.7225C7.8539 36.8321 7.46087 35.6244 7.46087 34.3652V5.87827C7.46087 4.61907 7.8539 3.41144 8.55349 2.52105C9.25308 1.63066 10.2019 1.13045 11.1913 1.13045H33.5739C34.5633 1.13045 35.5121 1.63066 36.2117 2.52105C36.9113 3.41144 37.3043 4.61907 37.3043 5.87827ZM33.5739 5.87827H11.1913V34.3652H26.113L28.2285 31.7328C29.044 31.0626 30.1786 29.4114 30.1786 29.4114C30.1786 29.4114 30.8663 28.2768 31.9589 26.985L33.5739 24.8696V5.87827ZM3.73043 10.6261C2.74106 10.6261 1.79221 11.1263 1.09262 12.0167C0.393027 12.9071 0 14.1147 0 15.3739V43.8609C0 46.4722 1.6787 48.6087 3.73043 48.6087H26.113C27.1024 48.6087 28.0513 48.1085 28.7509 47.2181C29.4505 46.3277 29.8435 45.1201 29.8435 43.8609H3.73043V10.6261Z" fill="white"/>
</svg>
