<svg width="40" height="41" viewBox="0 0 40 41" fill="none" xmlns="http://www.w3.org/2000/svg">
<circle cx="20" cy="20.5" r="20" fill="#7F9FF0"/>
<path d="M28 12.5H12C11.4696 12.5 10.9609 12.7107 10.5858 13.0858C10.2107 13.4609 10 13.9696 10 14.5V26.5C10 27.0304 10.2107 27.5391 10.5858 27.9142C10.9609 28.2893 11.4696 28.5 12 28.5H28C28.5304 28.5 29.0391 28.2893 29.4142 27.9142C29.7893 27.5391 30 27.0304 30 26.5V14.5C30 13.9696 29.7893 13.4609 29.4142 13.0858C29.0391 12.7107 28.5304 12.5 28 12.5ZM28 16.736L20 21.618L12 16.736V14.5H28V16.736Z" fill="white"/>
</svg>
