<svg width="31" height="50" viewBox="0 0 31 50" fill="none" xmlns="http://www.w3.org/2000/svg">
<g id="prod">
<path id="Vector" d="M12.4 0.971089V12.5002H10.3333V1.04192C10.3333 0.765657 10.2245 0.500706 10.0307 0.305357C9.83689 0.110007 9.57406 0.000261029 9.3 0.000261029C9.02594 0.000261029 8.76311 0.110007 8.56932 0.305357C8.37553 0.500706 8.26667 0.765657 8.26667 1.04192V12.5002H6.2V1.00442C6.2 -0.336196 4.13333 -0.290363 4.13333 0.970048V12.5002H2.06667V1.05234C2.06667 -0.367445 0 -0.315362 0 0.996089V16.071C0 18.245 2.06667 19.6783 4.13333 19.6783V46.875C4.13333 51.0417 10.3333 51.0417 10.3333 46.875V19.6793C12.4 19.6793 14.4667 17.9481 14.4667 16.3179V1.00442C14.4667 -0.323696 12.4 -0.272654 12.4 0.971089ZM21.7 4.16691V30.2084H23.7667V46.875C23.7667 51.0417 31 51.0417 31 46.875V4.16691C31 -1.0414 21.7 -1.0414 21.7 4.16691Z" fill="white"/>
</g>
</svg>
