<svg width="44" height="24" viewBox="0 0 44 24" fill="none" xmlns="http://www.w3.org/2000/svg">
<path opacity="0.3" d="M12 4H32C36.42 4 40 7.58 40 12C40 16.42 36.42 20 32 20H12C7.58 20 4 16.42 4 12C4 7.58 7.58 4 12 4ZM32 18C35.32 18 38 15.32 38 12C38 8.68 35.32 6 32 6C28.68 6 26 8.68 26 12C26 15.32 28.68 18 32 18Z" fill="black"/>
<path d="M12 0H32C38.62 0 44 5.38 44 12C44 18.62 38.62 24 32 24H12C5.38 24 3.8147e-06 18.62 3.8147e-06 12C3.8147e-06 5.38 5.38 0 12 0ZM12 20H32C36.42 20 40 16.42 40 12C40 7.58 36.42 4 32 4H12C7.58 4 4 7.58 4 12C4 16.42 7.58 20 12 20ZM32 6C35.32 6 38 8.68 38 12C38 15.32 35.32 18 32 18C28.68 18 26 15.32 26 12C26 8.68 28.68 6 32 6Z" fill="white"/>
</svg>
