<svg width="44" height="24" viewBox="0 0 44 24" fill="none" xmlns="http://www.w3.org/2000/svg">
<path opacity="0.3" d="M32 4H12C7.58 4 4 7.58 4 12C4 16.42 7.58 20 12 20H32C36.42 20 40 16.42 40 12C40 7.58 36.42 4 32 4ZM12 18C8.68 18 6 15.32 6 12C6 8.68 8.68 6 12 6C15.32 6 18 8.68 18 12C18 15.32 15.32 18 12 18Z" fill="#BDA979"/>
<path d="M32 0H12C5.38 0 0 5.38 0 12C0 18.62 5.38 24 12 24H32C38.62 24 44 18.62 44 12C44 5.38 38.62 0 32 0ZM32 20H12C7.58 20 4 16.42 4 12C4 7.58 7.58 4 12 4H32C36.42 4 40 7.58 40 12C40 16.42 36.42 20 32 20ZM12 6C8.68 6 6 8.68 6 12C6 15.32 8.68 18 12 18C15.32 18 18 15.32 18 12C18 8.68 15.32 6 12 6Z" fill="#BDA979"/>
</svg>
