<svg width="65" height="51" viewBox="0 0 65 51" fill="none" xmlns="http://www.w3.org/2000/svg">
<rect x="0.344763" y="0.598415" width="4.62121" height="15.3899" rx="2.3106" transform="matrix(0.281891 -0.959447 -0.971416 -0.237383 33.7989 44.9615)" fill="white" stroke="#7F9FF0"/>
<rect x="-0.344763" y="0.598415" width="4.62121" height="15.3899" rx="2.3106" transform="matrix(-0.281891 -0.959447 0.971416 -0.237383 31.1406 44.2999)" fill="white" stroke="#7F9FF0"/>
<rect x="28.9865" y="6.49715" width="6.99715" height="39.9815" rx="3.49857" fill="white" stroke="#7F9FF0"/>
<rect x="0.617162" y="0.356232" width="5.69016" height="17.223" rx="2.84508" transform="matrix(-0.266437 -0.963852 -0.967886 0.251388 33.563 46.6543)" fill="white" stroke="#7F9FF0"/>
<rect x="-0.617162" y="0.356232" width="5.69016" height="17.223" rx="2.84508" transform="matrix(0.266437 -0.963852 0.967886 0.251388 31.6875 45.5311)" fill="white" stroke="#7F9FF0"/>
<path d="M32.485 17.9922C41.2003 17.9922 49.1035 17.3376 54.8395 16.2743C57.7033 15.7434 60.052 15.1061 61.6965 14.3854C62.517 14.0258 63.1903 13.6335 63.6661 13.2024C64.1406 12.7725 64.4701 12.2549 64.4701 11.6555C64.4701 9.40159 63.9634 7.80353 62.6868 6.76487C61.4463 5.75566 59.5798 5.36587 57.1105 5.22855C54.9445 5.1081 52.2164 5.18005 48.8747 5.26819C48.3813 5.2812 47.8744 5.29457 47.354 5.30773C43.2987 5.41023 38.39 5.50115 32.5005 5.31916C24.7828 5.08068 18.9474 4.96114 14.5376 5.00774C10.1354 5.05426 7.12177 5.26621 5.06335 5.70163C3.00739 6.13653 1.79756 6.81633 1.15053 7.88883C0.526105 8.92386 0.5 10.226 0.5 11.6555C0.5 12.2549 0.829462 12.7725 1.30397 13.2024C1.77982 13.6335 2.45306 14.0258 3.27354 14.3854C4.91809 15.1061 7.26677 15.7434 10.1306 16.2743C15.8665 17.3376 23.7697 17.9922 32.485 17.9922Z" fill="white" stroke="#7F9FF0"/>
<ellipse cx="32.485" cy="6.99715" rx="31.485" ry="5.99715" fill="white" stroke="#7F9FF0"/>
</svg>
